<svg xmlns="http://www.w3.org/2000/svg" width="410" height="410" viewBox="0 0 410 410">
  <rect width="410" height="410" fill="#000000"/>
  <path d="M 283.0 115.5 L 276.0 109.5 L 44.5 109.0 L 76.0 74.5 L 83.5 72.0 L 81.5 69.0 L 106.0 42.5 L 305.0 42.5 L 325.5 63.0 L 326.5 70.0 L 283.0 115.5 Z" fill="#ffffff"/><path d="M 342.0 337.5 L 295.5 290.0 L 303.5 281.0 L 303.5 138.0 L 295.5 128.0 L 341.0 79.5 L 366.5 106.0 L 367.5 310.0 L 342.0 337.5 Z" fill="#ffffff"/><path d="M 305.0 375.5 L 105.0 375.5 L 83.5 353.0 L 131.0 304.5 L 135.0 308.5 L 276.0 308.5 L 283.0 302.5 L 328.5 350.0 L 305.0 375.5 Z" fill="#ffffff"/><path d="M 72.0 340.5 L 44.5 312.0 L 44.5 176.0 L 107.0 175.5 L 107.5 280.0 L 118.5 291.0 L 72.0 340.5 Z" fill="#ffffff"/><path d="M 252.0 170.5 L 247.5 159.0 L 243.5 160.0 L 283.0 118.5 L 291.5 127.0 L 252.0 170.5 Z" fill="#ffffff"/><path d="M 283.0 298.5 L 247.5 262.0 L 245.5 256.0 L 250.0 252.5 L 253.0 255.5 L 252.0 249.5 L 290.5 290.0 L 283.0 298.5 Z" fill="#ffffff"/><path d="M 131.0 299.5 L 122.5 290.0 L 160.0 250.5 L 168.5 260.0 L 131.0 299.5 Z" fill="#ffffff"/>
  <circle cx="205.6" cy="209.3" r="56.8" fill="#A8151B"/>
</svg>
